<mxfile host="app.diagrams.net" modified="2021-02-02T07:29:13.072Z" agent="5.0 (Macintosh; Intel Mac OS X 10_15_7) AppleWebKit/537.36 (KHTML, like Gecko) Chrome/88.0.4324.96 Safari/537.36" etag="trvlth_4IIbS_rYdIGsr" version="14.2.9" type="github">
  <diagram id="C5RBs43oDa-KdzZeNtuy" name="Page-1">
    <mxGraphModel dx="481" dy="267" grid="1" gridSize="10" guides="1" tooltips="1" connect="1" arrows="1" fold="1" page="1" pageScale="1" pageWidth="827" pageHeight="1169" math="0" shadow="0">
      <root>
        <mxCell id="WIyWlLk6GJQsqaUBKTNV-0" />
        <mxCell id="WIyWlLk6GJQsqaUBKTNV-1" parent="WIyWlLk6GJQsqaUBKTNV-0" />
        <mxCell id="i2kPv82U6aDjV_odrJXl-6" value="" style="edgeStyle=orthogonalEdgeStyle;rounded=0;orthogonalLoop=1;jettySize=auto;html=1;" edge="1" parent="WIyWlLk6GJQsqaUBKTNV-1" source="i2kPv82U6aDjV_odrJXl-4" target="i2kPv82U6aDjV_odrJXl-5">
          <mxGeometry relative="1" as="geometry" />
        </mxCell>
        <mxCell id="i2kPv82U6aDjV_odrJXl-4" value="复制" style="rounded=1;whiteSpace=wrap;html=1;fillColor=#d5e8d4;strokeColor=#82b366;" vertex="1" parent="WIyWlLk6GJQsqaUBKTNV-1">
          <mxGeometry x="50" y="80" width="120" height="60" as="geometry" />
        </mxCell>
        <mxCell id="i2kPv82U6aDjV_odrJXl-8" value="" style="edgeStyle=orthogonalEdgeStyle;rounded=0;orthogonalLoop=1;jettySize=auto;html=1;" edge="1" parent="WIyWlLk6GJQsqaUBKTNV-1" source="i2kPv82U6aDjV_odrJXl-5" target="i2kPv82U6aDjV_odrJXl-7">
          <mxGeometry relative="1" as="geometry" />
        </mxCell>
        <mxCell id="i2kPv82U6aDjV_odrJXl-5" value="document&amp;nbsp; 监听&lt;br&gt;copy/cut event" style="rounded=0;whiteSpace=wrap;html=1;" vertex="1" parent="WIyWlLk6GJQsqaUBKTNV-1">
          <mxGeometry x="210" y="80" width="120" height="60" as="geometry" />
        </mxCell>
        <mxCell id="i2kPv82U6aDjV_odrJXl-12" value="" style="edgeStyle=orthogonalEdgeStyle;rounded=0;orthogonalLoop=1;jettySize=auto;html=1;" edge="1" parent="WIyWlLk6GJQsqaUBKTNV-1" source="i2kPv82U6aDjV_odrJXl-7" target="i2kPv82U6aDjV_odrJXl-10">
          <mxGeometry relative="1" as="geometry" />
        </mxCell>
        <mxCell id="i2kPv82U6aDjV_odrJXl-7" value="读取 selection" style="rounded=0;whiteSpace=wrap;html=1;" vertex="1" parent="WIyWlLk6GJQsqaUBKTNV-1">
          <mxGeometry x="370" y="80" width="120" height="60" as="geometry" />
        </mxCell>
        <mxCell id="i2kPv82U6aDjV_odrJXl-14" value="否" style="edgeStyle=orthogonalEdgeStyle;rounded=0;orthogonalLoop=1;jettySize=auto;html=1;" edge="1" parent="WIyWlLk6GJQsqaUBKTNV-1" source="i2kPv82U6aDjV_odrJXl-10">
          <mxGeometry relative="1" as="geometry">
            <mxPoint x="760" y="110" as="targetPoint" />
          </mxGeometry>
        </mxCell>
        <mxCell id="i2kPv82U6aDjV_odrJXl-85" value="" style="edgeStyle=orthogonalEdgeStyle;rounded=0;orthogonalLoop=1;jettySize=auto;html=1;" edge="1" parent="WIyWlLk6GJQsqaUBKTNV-1" source="i2kPv82U6aDjV_odrJXl-10" target="i2kPv82U6aDjV_odrJXl-55">
          <mxGeometry relative="1" as="geometry" />
        </mxCell>
        <mxCell id="i2kPv82U6aDjV_odrJXl-10" value="selection是slide或插件" style="rhombus;whiteSpace=wrap;html=1;" vertex="1" parent="WIyWlLk6GJQsqaUBKTNV-1">
          <mxGeometry x="540" y="65" width="160" height="90" as="geometry" />
        </mxCell>
        <mxCell id="i2kPv82U6aDjV_odrJXl-52" value="默认行为" style="ellipse;whiteSpace=wrap;html=1;fillColor=#dae8fc;strokeColor=#6c8ebf;" vertex="1" parent="WIyWlLk6GJQsqaUBKTNV-1">
          <mxGeometry x="760" y="70" width="120" height="80" as="geometry" />
        </mxCell>
        <mxCell id="i2kPv82U6aDjV_odrJXl-82" value="" style="edgeStyle=orthogonalEdgeStyle;rounded=0;orthogonalLoop=1;jettySize=auto;html=1;" edge="1" parent="WIyWlLk6GJQsqaUBKTNV-1" source="i2kPv82U6aDjV_odrJXl-55" target="i2kPv82U6aDjV_odrJXl-81">
          <mxGeometry relative="1" as="geometry" />
        </mxCell>
        <mxCell id="i2kPv82U6aDjV_odrJXl-55" value="获取 selection path&amp;nbsp; 路径上 slide 的 cp 信息" style="whiteSpace=wrap;html=1;" vertex="1" parent="WIyWlLk6GJQsqaUBKTNV-1">
          <mxGeometry x="560" y="200" width="120" height="60" as="geometry" />
        </mxCell>
        <mxCell id="i2kPv82U6aDjV_odrJXl-87" value="" style="edgeStyle=orthogonalEdgeStyle;rounded=0;orthogonalLoop=1;jettySize=auto;html=1;" edge="1" parent="WIyWlLk6GJQsqaUBKTNV-1" source="i2kPv82U6aDjV_odrJXl-81" target="i2kPv82U6aDjV_odrJXl-86">
          <mxGeometry relative="1" as="geometry" />
        </mxCell>
        <mxCell id="i2kPv82U6aDjV_odrJXl-81" value="获取 selection path 路径上所有插件的 cp 信息" style="whiteSpace=wrap;html=1;" vertex="1" parent="WIyWlLk6GJQsqaUBKTNV-1">
          <mxGeometry x="560" y="310" width="120" height="60" as="geometry" />
        </mxCell>
        <mxCell id="i2kPv82U6aDjV_odrJXl-89" value="" style="edgeStyle=orthogonalEdgeStyle;rounded=0;orthogonalLoop=1;jettySize=auto;html=1;" edge="1" parent="WIyWlLk6GJQsqaUBKTNV-1" source="i2kPv82U6aDjV_odrJXl-86" target="i2kPv82U6aDjV_odrJXl-88">
          <mxGeometry relative="1" as="geometry" />
        </mxCell>
        <mxCell id="i2kPv82U6aDjV_odrJXl-86" value="获取 selection 选中元素依赖的相关信息" style="whiteSpace=wrap;html=1;" vertex="1" parent="WIyWlLk6GJQsqaUBKTNV-1">
          <mxGeometry x="560" y="420" width="120" height="60" as="geometry" />
        </mxCell>
        <mxCell id="i2kPv82U6aDjV_odrJXl-88" value="生成复制数据的 cp 子结构" style="whiteSpace=wrap;html=1;" vertex="1" parent="WIyWlLk6GJQsqaUBKTNV-1">
          <mxGeometry x="560" y="530" width="120" height="60" as="geometry" />
        </mxCell>
        <mxCell id="i2kPv82U6aDjV_odrJXl-90" value="" style="edgeStyle=orthogonalEdgeStyle;rounded=0;orthogonalLoop=1;jettySize=auto;html=1;" edge="1" parent="WIyWlLk6GJQsqaUBKTNV-1" target="i2kPv82U6aDjV_odrJXl-92">
          <mxGeometry relative="1" as="geometry">
            <mxPoint x="620" y="590" as="sourcePoint" />
          </mxGeometry>
        </mxCell>
        <mxCell id="i2kPv82U6aDjV_odrJXl-91" value="" style="edgeStyle=orthogonalEdgeStyle;rounded=0;orthogonalLoop=1;jettySize=auto;html=1;" edge="1" parent="WIyWlLk6GJQsqaUBKTNV-1" source="i2kPv82U6aDjV_odrJXl-92" target="i2kPv82U6aDjV_odrJXl-94">
          <mxGeometry relative="1" as="geometry" />
        </mxCell>
        <mxCell id="i2kPv82U6aDjV_odrJXl-92" value="以 &#39;application/x-alidocs-presentation&#39;为min&lt;span style=&quot;text-align: left&quot;&gt;eType&lt;/span&gt;&lt;span&gt;. 将生成的cp 子结构写入剪贴板&amp;nbsp;&lt;/span&gt;" style="rounded=0;whiteSpace=wrap;html=1;" vertex="1" parent="WIyWlLk6GJQsqaUBKTNV-1">
          <mxGeometry x="547.5" y="650" width="145" height="70" as="geometry" />
        </mxCell>
        <mxCell id="i2kPv82U6aDjV_odrJXl-93" value="" style="edgeStyle=orthogonalEdgeStyle;rounded=0;orthogonalLoop=1;jettySize=auto;html=1;" edge="1" parent="WIyWlLk6GJQsqaUBKTNV-1" source="i2kPv82U6aDjV_odrJXl-94" target="i2kPv82U6aDjV_odrJXl-95">
          <mxGeometry relative="1" as="geometry" />
        </mxCell>
        <mxCell id="i2kPv82U6aDjV_odrJXl-94" value="&lt;div style=&quot;text-align: left&quot;&gt;生成 mineType 是 text/plain, text/html 的相关内容, 并写入剪贴板&lt;/div&gt;" style="rounded=0;whiteSpace=wrap;html=1;fillColor=#f8cecc;strokeColor=#b85450;" vertex="1" parent="WIyWlLk6GJQsqaUBKTNV-1">
          <mxGeometry x="560" y="790" width="120" height="60" as="geometry" />
        </mxCell>
        <mxCell id="i2kPv82U6aDjV_odrJXl-95" value="e.preventDefault()" style="rounded=0;whiteSpace=wrap;html=1;" vertex="1" parent="WIyWlLk6GJQsqaUBKTNV-1">
          <mxGeometry x="560" y="910" width="120" height="60" as="geometry" />
        </mxCell>
      </root>
    </mxGraphModel>
  </diagram>
</mxfile>
